<?xml version="1.0" encoding="UTF-8" standalone="no"?>
<!-- Created with Inkscape (http://www.inkscape.org/) -->

<svg
   width="117.824mm"
   height="117.824mm"
   viewBox="0 0 117.824 117.824"
   version="1.1"
   id="svg1"
   xml:space="preserve"
   inkscape:version="1.3.2 (091e20ef0f, 2023-11-25)"
   sodipodi:docname="icon.svg"
   inkscape:export-filename="icon.png"
   inkscape:export-xdpi="93.128738"
   inkscape:export-ydpi="93.128738"
   xmlns:inkscape="http://www.inkscape.org/namespaces/inkscape"
   xmlns:sodipodi="http://sodipodi.sourceforge.net/DTD/sodipodi-0.dtd"
   xmlns="http://www.w3.org/2000/svg"
   xmlns:svg="http://www.w3.org/2000/svg"><sodipodi:namedview
     id="namedview1"
     pagecolor="#ffffff"
     bordercolor="#000000"
     borderopacity="0.25"
     inkscape:showpageshadow="2"
     inkscape:pageopacity="0.0"
     inkscape:pagecheckerboard="0"
     inkscape:deskcolor="#d1d1d1"
     inkscape:document-units="mm"
     inkscape:zoom="1.4841108"
     inkscape:cx="234.48384"
     inkscape:cy="220.67086"
     inkscape:window-width="1536"
     inkscape:window-height="795"
     inkscape:window-x="0"
     inkscape:window-y="0"
     inkscape:window-maximized="1"
     inkscape:current-layer="layer1"
     inkscape:clip-to-page="false" /><defs
     id="defs1" /><g
     inkscape:label="Calque 1"
     inkscape:groupmode="layer"
     id="layer1"
     transform="translate(-40.403332,-115.79111)"><g
       id="g1"
       transform="matrix(0.52850942,0,0,0.52850942,46.826213,97.024426)"
       style="stroke-width:1.4856851;fill:#ff6347;fill-opacity:1"><path
         id="rect8"
         style="fill:#ff6347;fill-opacity:1;stroke-width:1.4856851;stroke-linecap:round;stroke-linejoin:round"
         d="M 48.957649,140.85288 154.0671,139.07011 c 3.68997,-0.0626 4.55205,3.01044 4.01426,6.66154 l -1.00849,6.8467 c -0.53779,3.65109 -1.96335,5.73002 -5.65305,5.65305 L 48.868509,156.09207 c -3.6897,-0.077 -5.50274,-0.83172 -5.50274,-4.52221 v -5.83821 c 0,-3.69049 1.90191,-4.81618 5.59188,-4.87877 z"
         sodipodi:nodetypes="sssssssss" /><path
         id="rect9"
         style="fill:#ff6347;fill-opacity:1;stroke-width:1.4856851;stroke-linecap:round;stroke-linejoin:round"
         d="m 108.99272,128.71623 h 18.58856 c 4.08555,0 6.55896,1.49046 5.82236,5.50907 l -1.73951,9.49008 c -0.7366,4.01862 -1.95835,4.96791 -6.0439,4.96791 h -16.62751 c -4.08555,0 -13.149511,-3.08004 -11.029331,-6.57241 l 3.654681,-6.02 c 2.12018,-3.49236 3.2891,-7.37465 7.37465,-7.37465 z"
         sodipodi:nodetypes="sssssssss" /><path
         id="rect10"
         style="fill:#ff6347;fill-opacity:1;stroke-width:1.4856851;stroke-linecap:round;stroke-linejoin:round"
         d="m 46.721519,137.17307 h 6.30274 c 1.85909,0 2.33535,1.80173 3.35575,3.35575 l 3.78839,5.76955 c 1.0204,1.55401 -5.28505,3.1329 -7.14414,3.1329 h -6.30274 c -1.85909,0 -3.35575,-1.49667 -3.35575,-3.35575 v -5.5467 c 0,-1.85908 1.49666,-3.35575 3.35575,-3.35575 z"
         sodipodi:nodetypes="sssssssss" /><path
         id="rect11"
         style="fill:#ff6347;fill-opacity:1;stroke-width:1.4856851;stroke-linecap:round;stroke-linejoin:round"
         d="m 43.030844,143.38771 h 1.426214 c 1.455642,0 2.627513,1.17187 2.627513,2.62751 v 3.94744 c 0,1.45564 -1.171871,2.62751 -2.627513,2.62751 h -1.426214 c -1.455642,0 -2.627512,-1.17187 -2.627512,-2.62751 v -3.94744 c 0,-1.45564 1.17187,-2.62751 2.627512,-2.62751 z" /><path
         id="rect12"
         style="fill:#ff6347;fill-opacity:1;stroke-width:1.4856851;stroke-linecap:round;stroke-linejoin:round"
         d="m 149.54076,137.74649 h 1.76485 c 0.8206,0 1.48122,0.66062 1.48122,1.48122 0,0.82059 -0.66062,1.48122 -1.48122,1.48122 h -1.76485 c -0.8206,0 -1.48122,-0.66063 -1.48122,-1.48122 0,-0.8206 0.66062,-1.48122 1.48122,-1.48122 z" /><path
         id="rect13"
         style="fill:#ff6347;fill-opacity:1;stroke-width:1.4856851;stroke-linecap:round;stroke-linejoin:round"
         d="m 124.37073,115.79111 c 0.33333,0 0.60169,0.26835 0.60169,0.60168 v 12.39028 c 0,0.33333 -0.26836,0.60168 -0.60169,0.60168 -0.33334,0 -0.60169,-0.26835 -0.60169,-0.60168 v -12.39028 c 0,-0.33333 0.26835,-0.60168 0.60169,-0.60168 z" /><path
         id="rect13-9"
         style="fill:#ff6347;fill-opacity:1;stroke-width:1.4856851;stroke-linecap:round;stroke-linejoin:round"
         d="m 127.43101,121.76574 c 0.33333,0 0.60168,0.26835 0.60168,0.60169 v 8.51274 c 0,0.33333 -0.26835,0.60168 -0.60168,0.60168 -0.33334,0 -0.60169,-0.26835 -0.60169,-0.60168 v -8.51274 c 0,-0.33334 0.26835,-0.60169 0.60169,-0.60169 z" /></g></g></svg>
